<?xml version="1.0" encoding="UTF-8" standalone="no"?>
<!DOCTYPE svg PUBLIC "-//W3C//DTD SVG 1.1//EN" "http://www.w3.org/Graphics/SVG/1.1/DTD/svg11.dtd">
<svg width="100%" height="100%" viewBox="0 0 1714 1077" version="1.1" xmlns="http://www.w3.org/2000/svg" xmlns:xlink="http://www.w3.org/1999/xlink" xml:space="preserve" xmlns:serif="http://www.serif.com/" style="fill-rule:evenodd;clip-rule:evenodd;stroke-linejoin:round;stroke-miterlimit:2;">
    <g transform="matrix(1,0,0,1,-383.256113,-2288.816448)">
        <g transform="matrix(-4.166667,0,0,4.166667,5806.972716,0)">
            <g>
                <g transform="matrix(1,0,0,1,1333.7109,714.2984)">
                    <path d="M-54.03,-21.15C-54.03,-21.15 -69.98,8.241 -77.25,4.76C-71.42,11.65 -65.79,18.701 -60.38,25.92C-56.06,31.68 -51.88,37.55 -47.85,43.51C-43.89,49.371 -39.8,55.26 -36.56,61.55C-33.68,67.13 -31.28,73.53 -32.23,79.911C-33,85.13 -36.66,90.27 -42.49,89.85C-46.02,89.59 -49,87.54 -51.71,85.44C-54.42,83.34 -57.05,81.13 -59.59,78.83C-64.79,74.121 -69.61,69 -74.03,63.55C-76.01,61.1 -77.95,58.48 -80.45,56.52C-83.09,54.46 -86.18,53.84 -89.45,53.55C-96.59,52.92 -103.82,53.04 -110.93,53.94C-110.91,60.701 -111.51,67.44 -112.73,74.09C-113.3,77.21 -114,80.32 -114.86,83.38C-115.48,85.58 -116.32,87.84 -117.7,89.69C-119.17,91.68 -121.15,93.14 -123.67,93.38C-126.7,93.67 -129.41,91.94 -131.7,90.161C-139.64,83.96 -143.61,74.32 -147.04,65.11C-154.8,67.491 -162.75,69.241 -170.8,70.44C-195.64,74.121 -220.91,73.19 -245.9,71.98C-258.9,71.35 -271.91,70.39 -284.74,68.19C-289.77,67.32 -294.77,66.25 -299.7,64.93C-301.89,68.25 -304.14,71.52 -306.5,74.73C-307.96,76.71 -309.44,78.69 -310.98,80.61C-312.3,82.26 -313.81,83.871 -315.67,84.911C-319.02,86.8 -323.16,86.21 -325.61,83.18C-327.87,80.4 -328.69,76.58 -328.57,73.06C-328.43,69.34 -327.33,64.76 -329.34,61.35C-331.34,57.94 -335.9,57.79 -339.41,57.83C-344.56,57.89 -349.71,58.13 -354.86,58.28C-357.24,58.35 -359.69,58.29 -362.01,58.92C-363.99,59.46 -365.73,60.58 -367.25,61.951C-370.82,65.17 -373.75,69.18 -376.84,72.85C-379.96,76.54 -382.89,80.621 -386.77,83.57C-390.07,86.07 -394.49,87.56 -398.29,85.201C-401.51,83.19 -402.57,79.36 -402.49,75.76C-402.39,71.63 -401.06,67.61 -399.85,63.701C-398.42,59.05 -396.81,54.46 -395.05,49.94C-391.53,40.92 -387.44,32.13 -382.96,23.55C-378.48,14.97 -373.62,6.59 -368.58,-1.67C-367.78,-2.98 -366.98,-4.28 -366.17,-5.58C-366.11,-5.69 -366.04,-5.799 -365.97,-5.91C-369.72,-6.46 -373.47,-7.11 -377.18,-7.72C-390.63,-9.93 -403.99,-12.629 -417.24,-15.839C-420.52,-16.629 -423.8,-17.44 -427.06,-18.31C-429.78,-19.04 -432.62,-19.99 -434.54,-22.16C-436.55,-24.42 -437.39,-27.47 -438.32,-30.28C-439.38,-33.49 -440.34,-36.74 -441.22,-40.02C-441.31,-40.35 -441.39,-40.68 -441.47,-41.009C-441.81,-42.31 -442.14,-43.629 -442.45,-44.94C-442.81,-46.48 -443.3,-48.089 -443.33,-49.67C-443.4,-52.839 -441.12,-54.879 -438.78,-56.629C-435.71,-58.94 -432.26,-60.67 -428.67,-62.03C-426.84,-62.73 -424.97,-63.339 -423.09,-63.879C-417.52,-65.49 -411.76,-66.379 -406.21,-68.08C-403.61,-68.87 -401.01,-69.929 -398.87,-71.64C-396.62,-73.44 -395.11,-75.9 -393.79,-78.42C-391.19,-83.41 -389.03,-88.629 -385.62,-93.16C-382.02,-97.929 -377.38,-101.24 -371.71,-103.15C-365.78,-105.14 -359.32,-105.81 -353.1,-106.23C-346.42,-106.69 -339.71,-106.56 -333.05,-105.86C-326.67,-105.19 -319.96,-104.29 -313.91,-102.06C-308.48,-100.06 -304.18,-96.53 -300.7,-91.95C-297.31,-87.49 -294.86,-82.429 -292.44,-77.41C-289.55,-71.39 -286.76,-65.33 -284.09,-59.21C-282.26,-54.99 -280.49,-50.75 -278.76,-46.49C-278.64,-46.339 -278.52,-46.19 -278.39,-46.049C-271.76,-38.85 -261.1,-38.52 -252,-37.879C-242.03,-37.17 -232.04,-36.72 -222.04,-36.509C-221.21,-36.48 -220.37,-36.47 -219.54,-36.45C-197.77,-36.049 -175.99,-36.7 -154.26,-38.049C-146.29,-38.549 -138.26,-38.95 -130.32,-39.95C-128.67,-40.16 -127.02,-40.4 -125.37,-40.67C-116.63,-42.1 -107.91,-44.57 -100.51,-49.589C-85.32,-59.879 -79.79,-79.07 -80.4,-96.58C-80.76,-107.09 -84.01,-118.86 -86.86,-128.94C-89.77,-139.21 -94.336,-159.228 -93.41,-160.37C-74.659,-183.484 -39.998,-52.332 -54.03,-21.15Z" style="fill:rgb(253,151,50);fill-rule:nonzero;"/>
                </g>
                <g transform="matrix(1,0,0,1,1214.3608,700.5483)">
                    <path d="M0,12.73C-1.41,19.55 -78.56,17.09 -87.32,5.81C-94,-2.79 -99.26,-12.459 -102.69,-22.759C-101.86,-22.73 -101.02,-22.72 -100.19,-22.7C-78.42,-22.299 -56.64,-22.95 -34.91,-24.299C-26.94,-24.799 -18.91,-25.2 -10.97,-26.2C-7.21,-21.35 -4.1,-16.03 -1.95,-10.1C0.69,-2.83 1.59,5.121 0,12.73" style="fill:rgb(167,56,7);fill-rule:nonzero;"/>
                </g>
                <g transform="matrix(1,0,0,1,965.335,644.1849)">
                    <path d="M0,-15.348C-0.307,-16.944 -2.297,-17.123 -3.343,-16.231C-6.832,-13.253 -8.802,-8.465 -8.469,-3.892C-8.383,-2.708 -8.248,-1.353 -7.706,-0.273C-6.913,1.306 -5.041,1.775 -3.539,0.896C-2.297,0.17 -1.661,-1.131 -1.141,-2.413C-0.812,-3.222 -0.594,-4.056 -0.443,-4.906C-0.204,-5.724 0.002,-6.553 0.134,-7.396C0.552,-10.064 0.511,-12.694 0,-15.348" style="fill:rgb(47,12,84);fill-rule:nonzero;"/>
                </g>
                <g transform="matrix(1,0,0,1,998.8633,647.0983)">
                    <path d="M0,-8.695C-0.007,-10.292 -0.774,-11.894 -2.418,-12.339C-4.467,-12.891 -5.939,-11.176 -6.89,-9.633C-8.504,-7.012 -9.416,-3.986 -9.599,-0.919C-9.69,0.619 -9.503,2.57 -7.94,3.361C-6.291,4.196 -4.432,3.334 -3.258,2.08C-1.671,0.386 -1.167,-1.923 -1.037,-4.2C-1.006,-4.282 -0.97,-4.361 -0.939,-4.443C-0.448,-5.761 0.006,-7.277 0,-8.695" style="fill:rgb(47,12,84);fill-rule:nonzero;"/>
                </g>
                <g transform="matrix(1,0,0,1,922.2012,662.3295)">
                    <path d="M0,0.899C-0.28,4.189 -3.09,6.21 -5.91,7.379C-12.8,10.219 -20.68,10.849 -28.06,10.949C-28.69,10.96 -29.32,10.96 -29.96,10.96C-30.3,9.659 -30.63,8.339 -30.94,7.029C-31.3,5.489 -31.79,3.879 -31.82,2.299C-31.89,-0.871 -29.61,-2.911 -27.27,-4.661C-24.2,-6.971 -20.75,-8.701 -17.16,-10.061C-16.93,-10.011 -16.71,-9.961 -16.48,-9.901C-12.56,-8.951 -8.39,-7.751 -4.78,-5.921C-2.2,-4.601 0.26,-2.251 0,0.899" style="fill:rgb(47,12,84);fill-rule:nonzero;"/>
                </g>
                <g transform="matrix(1,0,0,1,1019.981,697.5984)">
                    <path d="M0,8.8C-9.04,17.25 -22.22,16.23 -33.67,15.81L-54.85,15.03C-54.05,13.72 -53.25,12.42 -52.44,11.12C-46.27,11.35 -40.09,11.58 -33.91,11.8C-28.19,12.01 -22.39,12.41 -16.69,11.74C-11.64,11.14 -6.59,9.5 -2.82,5.97C0.33,3.02 2.77,-1.27 2.16,-5.73C2.02,-6.809 2.4,-7.87 3.56,-8.19C4.5,-8.45 5.87,-7.87 6.02,-6.79C6.83,-0.849 4.34,4.75 0,8.8" style="fill:rgb(251,85,79);fill-rule:nonzero;"/>
                </g>
            </g>
            <g>
                <g transform="matrix(1,0,0,1,1050.3263,625.6214)">
                    <path d="M0,22.828C-0.293,19.221 -0.8,15.87 -1.116,13.56C-2.534,3.197 -5.613,-12.487 -14.476,-19.19C-18.011,-21.864 -22.681,-21.922 -26.909,-21.342C-37.015,-19.954 -53.563,-15.826 -51.827,-2.129C-50.838,5.676 -44.477,13.536 -39.723,19.571C-33.672,27.252 -26.436,34.328 -18.389,39.91C-14.016,42.943 -7.735,44.75 -3.335,40.701C0.342,37.315 0.551,29.617 0,22.828" style="fill:rgb(211,82,42);fill-rule:nonzero;"/>
                </g>
                <g transform="matrix(-0.06071,-0.998155,0.998155,-0.06071,954.369065,576.840869)">
                    <path d="M0,22.828C-0.293,19.221 -0.8,15.87 -1.116,13.56C-2.534,3.197 -5.613,-12.487 -14.476,-19.19C-18.011,-21.864 -22.681,-21.922 -26.909,-21.342C-37.015,-19.954 -53.563,-15.826 -51.827,-2.129C-50.838,5.676 -44.477,13.536 -39.723,19.571C-33.672,27.252 -26.436,34.328 -18.389,39.91C-14.016,42.943 -7.735,44.75 -3.335,40.701C0.342,37.315 0.551,29.617 0,22.828" style="fill:rgb(211,82,42);fill-rule:nonzero;"/>
                </g>
                <g transform="matrix(1.004813,-0.691171,0.644716,0.937277,1254.06218,565.692224)">
                    <path d="M0,-17.472C-5.412,-21.413 -4.921,-14.245 -7.281,-8.96C-13.516,5.001 4.672,3.941 3.846,-9.437C3.609,-13.267 2.096,-15.946 0,-17.472" style="fill:white;fill-rule:nonzero;"/>
                </g>
            </g>
        </g>
    </g>
</svg>
