<svg xmlns="http://www.w3.org/2000/svg" width="588.821" height="830.962" viewBox="0 0 588.821 830.962">
  <g>
    <path d="M586.11,685.144a62.431,62.431,0,0,1-27.05,34.221,47.364,47.364,0,0,1,10.372,21.42c3.62,17.846-2.991,36.837-18.431,47-13.315,8.759-31.231,10.605-45.807,4.017a55.98,55.98,0,0,1-10.372,17.076c-10.3,11.469-25.2,18.664-40.738,18.43a56.633,56.633,0,0,1-36.23-13.735c-6.494,11.469-20.322,17.683-33.543,17.379-16.749-.374-30.928-10.138-43.495-20.626-1.027-.864-2.055-1.729-3.06-2.593-16.561,19.388-50.1,20.509-67.461,1.659-.21-.211-.42-.444-.607-.654-20.93,16.234-53.3,14.132-71.9-4.766-10,12.427-25.462,20.416-41.65,19.972a53.183,53.183,0,0,1-41.765-22.354c-13.338,4.2-28.078-4.392-35.132-15.838-9.437-15.3-6.121-34.174-2.033-50.852A51.934,51.934,0,0,1,56.63,723.523c-12.707-11.469-19.388-28.428-16.7-45.457a53.01,53.01,0,0,1,24.41-36.533,61.838,61.838,0,0,1-8.549-20.323c-3.363-15.347-1.285-31.605,6.868-45.13A64.431,64.431,0,0,1,89.917,551.2a64.772,64.772,0,0,1-11.633-20.392c-5.863-16.866-4.719-35.856,4.018-51.53a66.082,66.082,0,0,1,34.408-29.666c-7.732-15.347-13.689-32.7-11.143-49.849.234-1.635.561-3.247.958-4.858a54.535,54.535,0,0,1,1.658-5.466c3.855-10.675,11.1-19.972,20.86-25.322a55.341,55.341,0,0,1-2.943-7.451c-4.906-16.188-2.733-34.174,4.765-49.218,7.428-14.926,19.692-27.1,33.614-36.089,30.717-19.879,68.232-25.181,104.134-23.079a377.47,377.47,0,0,1,55.081,7.732c18.01,3.784,36.16,7.989,53.469,14.342,15.931,5.863,30.881,14.273,43.051,26.256A116.952,116.952,0,0,1,446,335.109a111.248,111.248,0,0,1,8.479,45.643c-.093,2.827-.3,5.793-.7,8.807a55.253,55.253,0,0,1-2.312,10.7,34.674,34.674,0,0,1-4.438,9.273,34.514,34.514,0,0,1,23.522,19.2c4.813,10.908,2.687,23.686-4.134,33.123a61.547,61.547,0,0,1,15.137,6.61c12.964,7.919,23.1,20.136,27.587,34.735a64.557,64.557,0,0,1-1.449,42c29.573,10.371,51.53,39.453,52.324,70.988a60.745,60.745,0,0,1,19.132,18.874C588.539,649.872,591.576,668.349,586.11,685.144Z" fill="#d3522a"/>
    <path d="M547.7,254.381a62.685,62.685,0,0,0-19.772-12.414c1.032-.55,2.062-1.106,3.076-1.69,4.281-2.47,8.889-5.18,12.459-8.647,8.746-8.493.954-19-5.729-25.761a64.537,64.537,0,0,0-38.778-18.5,91.733,91.733,0,0,0,8.236-9.849c4.673-6.472,10.092-14.324,8.666-22.724-1.388-8.176-8.471-13.984-14.851-18.542a71.182,71.182,0,0,0-14.644-7.975,36.632,36.632,0,0,0-.069-31.957c-9.048-17.864-31.317-25.152-49.879-19.813a52.265,52.265,0,0,0-15.467,7.464c2.953-14.3,2.809-29.241-8.038-40.459-12.985-13.431-34.945-10.549-48.419.366a55.106,55.106,0,0,0-6.089,5.8c-.395-9.083-3.116-17.984-8.845-25.024-5.3-6.5-12.809-9.55-21.132-7.983-7.956,1.5-15.369,6.4-21.513,11.49a68.31,68.31,0,0,0-8.156,8.023c-1.6-15.106-8.851-29.274-24.688-34.209-17.089-5.325-34.975,2.729-45.11,16.566A51.719,51.719,0,0,0,213.875,5.669C205.191.806,194.418-1.7,184.688,1.291c-8.84,2.715-15.809,9.789-19.934,17.89-3.71,7.288-5.162,15.289-5.783,23.373-9.717-9.587-21.8-16.9-35.862-16.774-17.138.148-32.366,11.571-33.754,29.239-.593,7.548,1.382,15.114,4.609,22A90.617,90.617,0,0,0,48.085,88.8c-7.6,4.368-13.728,10.806-15.508,19.624-1.686,8.345.13,16.963,4.005,24.436A65.451,65.451,0,0,0,48.25,148.213c-11.722,4.266-20.375,19.31-24.093,29.851-2.865,8.124-3.082,17.116,1.177,24.783a23.286,23.286,0,0,0,6.01,7.018C16.677,217.2,3.806,228.6.65,245.482c-1.766,9.448,0,19.288,6.1,26.869a30.929,30.929,0,0,0,12.492,9.336C9.527,290.3,2.491,301.735,1.678,315.077c-.98,16.1,8.521,32.319,24.9,35.872a29.856,29.856,0,0,0,10.991.325,36.976,36.976,0,0,0,6.185,32.1c11.1,14.3,30.691,15.972,45.635,6.648A38.556,38.556,0,0,0,100.916,378.9c5.821,11.7,16.737,21.285,30.219,21.164,11.886-.107,23.831-9.941,26.18-21.542,8.823,3.249,20.023.224,26.339-7.092,9.779-11.327,10.152-27.432,7.035-41.6a46.366,46.366,0,0,0,13.143-7.724,45.259,45.259,0,0,0,11.906-15.569,603.488,603.488,0,0,0,131.045,6.281q13.783-.851,27.514-2.351c4.686,12.286,14.368,22.158,26.4,28.059.8.391,1.609.745,2.42,1.1-5.007,14.644-1.463,31.755,10.327,42.311,11.989,10.735,31.288,14.341,45.142,5.006a28.2,28.2,0,0,0,9.23-10.093,38.1,38.1,0,0,0,35.264,10.263c17.376-3.919,26.774-21.8,24.161-38.7a37.344,37.344,0,0,0-4.913-13.733c17.521,1.431,36.268-1.627,43.22-20.011C573.485,293.685,563.409,268.909,547.7,254.381Z" fill="#d3522a"/>
    <path d="M440.373,392.315a41.282,41.282,0,0,1-26.934-10.372c-11.772-10.558-15.323-27.68-10.324-42.326-.794-.35-1.612-.7-2.406-1.1-12.053-5.886-21.724-15.767-26.419-28.054q-13.7,1.506-27.517,2.359-18.326,1.122-36.72,1.121a607.524,607.524,0,0,1-94.325-7.4A45.308,45.308,0,0,1,203.839,322.1a46.481,46.481,0,0,1-13.151,7.731c3.107,14.179,2.756,30.274-7.031,41.6a25.231,25.231,0,0,1-18.805,8.386,22.183,22.183,0,0,1-7.545-1.285c-2.335,11.586-14.295,21.42-26.162,21.537h-.256c-8.97,0-16.772-4.275-22.706-10.628a54.535,54.535,0,0,0-1.658,5.466c-.4,1.611-.724,3.223-.958,4.858a39.464,39.464,0,0,0,25.322,9.648h.327c13.1-.117,25.951-8.643,32.1-20.276.514.023,1.028.023,1.541.023a34.526,34.526,0,0,0,25.882-11.632c8.994-10.419,12.591-25.252,10.372-42.28a56.1,56.1,0,0,0,8.736-5.98,55.022,55.022,0,0,0,10.932-12.521,615.521,615.521,0,0,0,89.279,6.541c12.426,0,24.97-.374,37.3-1.145,7.008-.443,14.132-1,21.256-1.7a61.811,61.811,0,0,0,23.663,24.153c-2.733,16.422,2.827,33.451,14.95,44.313a50.294,50.294,0,0,0,33.147,12.753,44.571,44.571,0,0,0,11.1-1.4,55.253,55.253,0,0,0,2.312-10.7A32.822,32.822,0,0,1,440.373,392.315Z" fill="#a73807"/>
    <path d="M205.852,305.442a36.049,36.049,0,0,1-17.689,15.325,176.353,176.353,0,0,0-8.944-21.15q13.38,2.965,26.886,5.321C206.013,305.1,205.948,305.277,205.852,305.442Z" fill="#d3522a"/>
    <path d="M418.753,226.182a42.983,42.983,0,0,0-22.643-9.536,45.242,45.242,0,0,0-9.363-40.449c-10.993-13.017-29.535-16.936-45.4-11.522a44.338,44.338,0,0,0-16.777,10.264,42.206,42.206,0,0,0-27.443-21.945,38.747,38.747,0,0,0-32.533,7.122,46.652,46.652,0,0,0-30.663-4.8c-14.73,2.734-26.345,13.6-31.833,27.278a43.254,43.254,0,0,0-3.028,14.238,46.351,46.351,0,0,0-40.094-1.8c-16.726,7.214-29.109,27.433-20.714,45.193a27.2,27.2,0,0,0,11.479,12.133c-9.841,8.187-15.19,21.363-14.691,34.386.736,19.2,14.386,34.093,31.827,40.667a59.921,59.921,0,0,0,28.249,3.227c5.728,11.689,17.52,19.918,30.763,20.439,12.16.478,23.408-5.895,30.209-15.568,9.758,12.232,23.42,21.774,39.4,22.77,14.365.894,29.112-6.2,36.384-18.529,11.487,8.239,28.02,8.1,41.132,4.186,14.973-4.473,28.668-16.253,27.9-33.078A27.181,27.181,0,0,0,397.674,299a43.946,43.946,0,0,0,32.887-23.605C439.065,258.234,433.481,238.024,418.753,226.182Z" fill="#fd9732"/>
    <path d="M192.922,148.046a13.375,13.375,0,0,0-3.348-6.2,11.389,11.389,0,0,0-6.251-3.377,14.028,14.028,0,0,0-8.37,1.216c-4.335,2-7.917,6.977-7.405,11.888a12.378,12.378,0,0,0,3.51,7.561,10.962,10.962,0,0,0,4.52,2.748,13.412,13.412,0,0,0,5.511,1.3,12.463,12.463,0,0,0,6.681-1.756,11.853,11.853,0,0,0,4.887-6.19A13.089,13.089,0,0,0,192.922,148.046Z" fill="#2f0c54"/>
    <path d="M342.1,137.95a10.277,10.277,0,0,0-3.573-6.509,14.528,14.528,0,0,0-4.019-2.365,12.78,12.78,0,0,0-3.575-.772,10.892,10.892,0,0,0-3.588.3,9.135,9.135,0,0,0-3.214,1.449,10.18,10.18,0,0,0-3.17,3.442,11.262,11.262,0,0,0-1.259,4.553,12.441,12.441,0,0,0,8.2,12.2,8.586,8.586,0,0,0,3.67.446,5.588,5.588,0,0,0,2.687-.871C339.155,148.156,342.821,143.336,342.1,137.95Z" fill="#2f0c54"/>
    <path d="M304.869,198.436a37.474,37.474,0,0,0-14.58-6.039,3.518,3.518,0,0,0-2.225-1.324,60.959,60.959,0,0,0-20.813.5c-6.35,1.293-13.5,3.613-18.536,7.828-5.278,4.415-5.906,11.587-2.86,17.489,2.91,5.638,9,8.685,14.8,10.478a64.249,64.249,0,0,0,14.685,2.663q1.957,30.6,2.121,61.266A27,27,0,0,1,263.2,286c-2-1.541-4.664-1.944-6.607,0-1.608,1.608-2.008,5.055,0,6.607a38.3,38.3,0,0,0,46.784-.014c2-1.545,1.625-4.982,0-6.607-1.971-1.971-4.6-1.549-6.607,0a25.9,25.9,0,0,1-9.971,4.64q-.15-30.369-2.119-60.684A55.6,55.6,0,0,0,301.4,226.1c5.225-2.155,10.491-5.882,11.822-11.714C314.778,207.571,310.083,202.071,304.869,198.436Z" fill="#2f0c54"/>
    <path d="M356.14,744.406c-14.53,18.337-19.739,43.1-15.324,65.919-1.027-.864-2.055-1.729-3.06-2.593-16.561,19.388-50.1,20.509-67.461,1.659,1.051-1.682,2.009-3.387,2.92-5.163a73.042,73.042,0,0,0,6.331-49.124,75.687,75.687,0,0,0-25.789-41.742c-1.565-1.285-1.705-4.018-.724-5.653,6.774-11.283,10.769-25.2,6.727-38.169-3.13-10.091-11.913-19.5-22.8-20.813-3.761-.444-6.517-4.9-3.317-7.965,8.573-8.176,13.174-20.463,11.189-32.259a37.177,37.177,0,0,0-19.5-26.606,4.012,4.012,0,0,1-2.312-3.481,4.307,4.307,0,0,1-.538-3.6c.631-2.242,3.411-4.2,5.747-3.27a118.292,118.292,0,0,0,78.7,3.41,4.591,4.591,0,0,1,2.056-1c.934-.187,1.892-.4,2.827-.584,1.331-.467,2.639-.935,3.924-1.448a3.8,3.8,0,0,1,2.732.046c.491-.093.958-.21,1.449-.3a4.738,4.738,0,0,1,5.279,6.867c-11.773,24.317-2.733,56.646,19.809,71.479,1.915,1.261,3.27,4.321,1.681,6.4-18.64,24.364-14.319,61.972,9.461,81.407C358.265,739.547,357.588,742.584,356.14,744.406Z" fill="#a73807"/>
    <path d="M496.194,622.2c-5.859,1.34-3.379,10.351,2.484,9.01,5.73-1.31,11.3,5.025,10.347,10.542-1,5.8-7.883,9.819-13.485,8.932-2.3-.364-4.58.392-5.511,2.705-.78,1.94-.251,4.9,1.912,5.834,8.028,3.465,3.139,13.169-2.439,16.4-5.665,3.283-15.289,1.848-15.383-6.21-.071-6.009-9.414-6.025-9.344,0a17.611,17.611,0,0,0,9.794,15.416c6.279,3.092,13.671,2.313,19.649-1.139,5.91-3.411,10.441-9.492,11.211-16.345a16.728,16.728,0,0,0-1.4-8.587c7.232-2.375,13.215-8.15,14.278-16.218C519.905,630.439,508.094,619.479,496.194,622.2Z" fill="#a73807"/>
    <path d="M194.668,723.145c-.25-2.511-1.969-4.672-4.672-4.672-2.333,0-4.923,2.146-4.672,4.672.745,7.487-6.647,12.476-13.491,12.63a19.27,19.27,0,0,1-17.026-9.379c-2.617-4.484-10.18-1.545-8.539,3.6,1.45,4.548-6.934,8.246-10.466,7.853-5.55-.618-7.1-6.648-4.253-10.775,3.42-4.964-4.674-9.642-8.068-4.716a15.908,15.908,0,0,0,10.641,24.611c6.5.969,14.9-2.6,19.093-8.34a28.328,28.328,0,0,0,20.19,6.4C184.394,744.039,195.867,735.2,194.668,723.145Z" fill="#a73807"/>
    <path d="M155.05,617.886a4.786,4.786,0,0,0-4.672-4.672c-2.384,0-4.858,2.142-4.671,4.672.281,3.816-2.843,7.982-6.948,7.641-3.273-.273-6.437-4.306-5.9-7.438a4.861,4.861,0,0,0-2.146-5.277,4.72,4.72,0,0,0-5.662.731,6,6,0,0,1-2.506,1.872,7.244,7.244,0,0,1-4.047.415,10.393,10.393,0,0,1-6.576-3.568c-1.634-2.016-2.346-5.606-2.052-8.6a18.5,18.5,0,0,1,3.937-9.488c1.582-1.963,1.918-4.689,0-6.607-1.637-1.637-5.016-1.975-6.607,0-7.018,8.709-9.876,22.165-1.885,31.3a19.364,19.364,0,0,0,19.453,5.59,15.952,15.952,0,0,0,13.417,10.366C147.335,635.631,155.716,626.928,155.05,617.886Z" fill="#a73807"/>
    <path d="M409.663,579.776c-.425-2.413-3.5-3.989-5.747-3.263a4.8,4.8,0,0,0-3.263,5.747l0,.014c.016.2.032.39.039.586.013.368.011.738-.009,1.106-.014.277-.249,1.333.008.223-.1.42-.162.845-.272,1.263s-.257.822-.385,1.235c-.02.063-.025.089-.036.13s-.038.062-.07.121c-.417.771-.836,1.507-1.326,2.237-.024.036-.029.046-.047.074-.039.038-.078.075-.145.147-.256.271-.5.549-.765.811-.282.279-.585.531-.88.793-.158.112-.317.223-.48.327-.309.2-.628.387-.953.561-.167.089-.348.172-.466.226a16.935,16.935,0,0,1-1.775.5c.023-.015-.524.09-.71.1a12.357,12.357,0,0,1-1.291-.015c-.136-.009-.221-.012-.293-.014-.037-.009-.055-.015-.11-.028-.361-.081-.719-.154-1.078-.252s-.7-.229-1.056-.338l-.1-.037c-.162-.077-.325-.153-.485-.235a17.3,17.3,0,0,1-1.561-.954c-.1-.078-.576-.416-.7-.527-.322-.29-.634-.592-.93-.909-.152-.164-.294-.337-.439-.507-.054-.083-.341-.458-.425-.587-.268-.416-.483-.855-.731-1.281-.037-.064-.056-.09-.08-.128s-.016-.057-.034-.109a15.249,15.249,0,0,1-.629-2.511c-.376-2.423-3.537-3.978-5.747-3.263-2.635.853-3.666,3.151-3.263,5.747,1.12,7.217,7.515,13.407,14.59,14.864a18.214,18.214,0,0,0,19.453-8.99A18.824,18.824,0,0,0,409.663,579.776Z" fill="#a73807"/>
    <path d="M356.651,413.036c-2.6-5.421-10.655-.686-8.068,4.716,3.4,7.1,6.326,16.027-1.819,21.14-6.109,3.835-14.277.282-16.383-6.449l-.031.013c-.153-.375-.272-.761-.44-1.129-2.206-4.827-10.105-1.406-8.539,3.6a20.752,20.752,0,0,0,1.013,2.565c3.747,10.894-5.532,22.7-17.25,21.238-11.178-1.393-17.412-13.438-19.67-23.245-.926-4.018-6.534-4.433-8.54-1.115-4.216,6.977-13.45,10.407-21.169,7.537-7.772-2.89-12.4-12.129-10.639-20.1,1.3-5.859-7.709-8.362-9.01-2.484-2.844,12.848,4.095,26.475,16.433,31.315,8.929,3.5,19.208,1.195,26.48-4.735,5,11.982,14.93,22.707,28.7,22.248a26.135,26.135,0,0,0,20.8-11.551,23.745,23.745,0,0,0,3.59-9.1,19.814,19.814,0,0,0,18.658-.123,21.256,21.256,0,0,0,10.346-13.661C362.689,426.371,359.765,419.535,356.651,413.036Z" fill="#a73807"/>
    <path d="M211.624,489.393a4.721,4.721,0,0,0-6.392,1.676,46.616,46.616,0,0,1-8.454,11.774,27.925,27.925,0,0,1-4.911,4.262c-.159.1-1.24.627-1.212.653a8.684,8.684,0,0,1-.927.251,8.373,8.373,0,0,0-1.163.039h-.015q-.309-.062-.61-.148c-.148-.04-.821-.319-.926-.342-.426-.226-.839-.466-1.253-.721a2.129,2.129,0,0,0-.233-.132c-.038-.046-.095-.11-.2-.221-.419-.422-.843-.825-1.239-1.27-.088-.1-.146-.16-.194-.208-.029-.061-.073-.148-.143-.274-.247-.447-.51-.879-.744-1.332-.058-.161-.258-.641-.293-.755a10.8,10.8,0,0,1-.413-1.831c.018-.014-.029-1.068-.029-1.239a15.6,15.6,0,0,1,.089-1.859l.061-.359q.1-.531.222-1.056.188-.792.429-1.57a27.988,27.988,0,0,1,3.311-6.771,4.673,4.673,0,0,0-8.068-4.716c-5.534,8.75-8.184,20.523-.54,28.91,3.066,3.365,7.867,5.7,12.483,5.18,5.355-.608,9.479-4.168,13.13-7.883a57.084,57.084,0,0,0,9.915-13.665A4.778,4.778,0,0,0,211.624,489.393Z" fill="#a73807"/>
    <path d="M433.392,746.814a4.774,4.774,0,0,0-4.671-4.672,4.715,4.715,0,0,0-4.672,4.672c.256,4.755.32,9.742-1.687,13.76a10.827,10.827,0,0,1-3.406,4.284c.032-.049-.823.535-.947.608s-.918.473-.986.532a10.815,10.815,0,0,1-1.184.384c-.233.059-.468.105-.7.15l-.157.011a6.17,6.17,0,0,1-2.454-.282c-.8-.185-.105.05-.79-.286a17.349,17.349,0,0,1-1.787-1.047,21.3,21.3,0,0,1-3.928-3.945,32.613,32.613,0,0,1-5.971-13.1,4.673,4.673,0,1,0-9.01,2.484,41.566,41.566,0,0,0,5.631,13.492c2.606,4.006,5.98,8.038,10.349,10.189A16.267,16.267,0,0,0,421.882,774a20.307,20.307,0,0,0,9.257-10.292C433.4,758.371,433.7,752.532,433.392,746.814Z" fill="#a73807"/>
    <path d="M437.849,492.312a83.32,83.32,0,0,1-1.567,13.586c-.626,2.732-1.689,4.453-4.612,4.707-6.517.567-9.358-6.966-9.84-12.233-.539-5.9-9.173-6.11-9.343,0-.153,5.476-.062,13.69-6.105,16.2-6.139,2.546-8.214-8.008-8.637-12.157-.255-2.51-1.964-4.672-4.671-4.672-2.328,0-4.929,2.146-4.672,4.672,1.038,10.2,6.356,24.507,19.232,21.525,5.718-1.325,9.151-4.988,11.214-9.566a15.858,15.858,0,0,0,12.822,5.578,13.8,13.8,0,0,0,12.46-8.111,31.764,31.764,0,0,0,2-8.724q.732-5.383,1.057-10.8C447.547,486.305,438.2,486.326,437.849,492.312Z" fill="#a73807"/>
    <path d="M91.582,319.256c-3.1,4.506-11.139,5.13-14.7.84-3.018-3.642-2.385-9.563.849-12.86a12.73,12.73,0,0,0,2.5-1.98c3.584-3.756-1.025-10.187-5.662-7.337a17.414,17.414,0,0,0-2.257,1.686c-2.786,1.485-7.016.817-9.767.045a17.382,17.382,0,0,1-9.528-6.393c-4.013-5.678-3.216-14.74,2.85-18.722,5.006-3.287.33-11.381-4.716-8.068-10.422,6.842-13.162,22-5.77,32.111a27.2,27.2,0,0,0,15.774,10.365,31.439,31.439,0,0,0,5.088.745A18.511,18.511,0,0,0,70.28,326.7c8.061,8.743,22.878,6.7,29.37-2.731C103.068,319.007,94.974,314.329,91.582,319.256Z" fill="#a73807"/>
    <path d="M489.781,268.084c-5.772-1.732-8.238,7.283-2.484,9.01,5.1,1.532,7.811,8.856,4.624,13.113-3.382,4.516-10.63,3.772-13.963-.422-3.311-4.165-10.143,1.226-7.338,5.661,3,4.744,3.729,13.706-2.866,15.895-3.092,1.026-6.474.265-9.374-1a42.8,42.8,0,0,1-5.213-2.849c-.5-.306-1.063-.769-1.631-1.132a4.413,4.413,0,0,0,.014-2.4c-.627-2.283-3.365-4.135-5.747-3.263-3.383,1.237-5.162,4.271-4.083,7.85.935,3.1,3.39,4.925,6.007,6.56,5.577,3.483,11.926,6.619,18.7,5.938a16.731,16.731,0,0,0,14.538-11.081,20.476,20.476,0,0,0,1.232-7.622c6.694.934,13.983-1.653,17.795-7.422C506.354,285.293,500.517,271.306,489.781,268.084Z" fill="#a73807"/>
    <path d="M105.742,179.663A4.746,4.746,0,0,0,100,182.926c-.178.591-.382,1.17-.585,1.753-.059.147-.1.247-.127.319-.1.228-.207.456-.317.681a25.629,25.629,0,0,1-1.855,3.186q-.261.381-.534.753l-.12.149c-.4.472-.8.938-1.22,1.387a26.185,26.185,0,0,1-2.607,2.41c-.168.112-.921.671-1.02.737-.511.343-1.034.67-1.568.976q-.6.344-1.218.657c-.118.059-1.125.506-1.165.539a24.134,24.134,0,0,1-3.341,1.037c-.31.071-1.407.274-1.381.271-.222.025-1.636-.025-1.6.03-.3-.088-.915-.32-.972-.308-.258-.158-.584-.359-.674-.392-.331-.291-.643-.6-.948-.919l-.048-.057c-.152-.221-.3-.446-.435-.677-.074-.126-.5-1.042-.541-1.06-.113-.312-.225-.625-.315-.945-.036-.13-.211-1-.265-1.156a12.3,12.3,0,0,1-.074-1.408,14.741,14.741,0,0,1,2.015-6.5,63.221,63.221,0,0,1,4.827-7.283c1.493-2.036.343-5.212-1.675-6.392-2.37-1.386-4.9-.365-6.392,1.676-3.246,4.426-6.567,9.17-7.657,14.66a18.2,18.2,0,0,0,3.434,15.108c7.4,9.3,21.036,3.827,28.394-2.634a30.628,30.628,0,0,0,8.99-14.115A4.738,4.738,0,0,0,105.742,179.663Z" fill="#a73807"/>
    <path d="M467.969,175.738c-1.317-5.916-4.7-11.124-8.036-16.082a4.784,4.784,0,0,0-6.392-1.676,4.717,4.717,0,0,0-1.676,6.392c2.954,4.4,5.886,8.693,7.036,13.589.026.112.209,1.195.25,1.31.05.5.089,1,.1,1.493.008.446,0,.893-.024,1.338q-.022.393-.062.784c-.01.058-.018.1-.03.182-.126.576-.24,1.149-.408,1.715-.038.127-.3.847-.377,1.076-.119.213-.461.882-.526.991-.082.139-.707.945-.692.974-.275.3-.562.588-.865.862-.133.087-.605.449-.715.515-.265.158-.538.305-.816.441l-.208.076a15.737,15.737,0,0,1-1.638.421c-.078-.021-1.168.085-1.319.085-.416,0-.835-.025-1.25-.067-.026-.033-1.164-.248-1.3-.287s-1.249-.441-1.263-.418c-.391-.182-.774-.384-1.145-.6-.118-.07-1.039-.688-1.107-.709a16.223,16.223,0,0,1-2.474-2.455c-.062-.1-.535-.722-.534-.72q-.54-.8-1.009-1.634c-.315-.56-.6-1.133-.873-1.714q-.348-.771-.092-.21-.175-.446-.332-.9a4.793,4.793,0,0,0-5.747-3.263c-2.294.631-4.119,3.361-3.263,5.747a26.711,26.711,0,0,0,8.664,12.5,19.285,19.285,0,0,0,15.339,3.705C465.96,197.186,470.127,185.428,467.969,175.738Z" fill="#a73807"/>
    <path d="M138.525,73.012c-6.593-.845-12.684,2.9-14.223,9.518a13.746,13.746,0,0,0-.314,3.3,30.458,30.458,0,0,0-3.677-.544c-5.679-.462-12.715.837-16.891,5-4.432,4.413-4.451,11.253-1.857,16.609,2.637,5.445,8.169,8.762,13.252,11.6,5.255,2.934,9.972-5.134,4.715-8.068-3.128-1.745-6.7-3.53-8.877-6.484-1.478-2-2.556-5.572-.256-7.384,2.621-2.064,7.132-2.256,10.284-1.889a18.992,18.992,0,0,1,9.838,4.148,4.8,4.8,0,0,0,6.606,0c1.7-1.7,1.906-4.938,0-6.607-2.033-1.782-4.283-4.254-3.813-7.195.548-3.436,3.979-3.135,6.581-2.118a16.213,16.213,0,0,1,9.931,14.746c.059,6.009,9.4,6.024,9.343,0C159.053,86.049,150.394,74.534,138.525,73.012Z" fill="#a73807"/>
    <path d="M290.144,77.359a17.647,17.647,0,0,0-11.351-12.272c-11.326-3.605-18.66,8.067-22.32,18.357a55.458,55.458,0,0,0-5.992-4.157c-4.149-2.482-8.889-4.9-13.86-4.005-10.057,1.8-13.351,14.405-6.2,21.342,4.32,4.187,10.934-2.412,6.607-6.607-1.195-1.159-1.8-2.892-.69-4.342,1.381-1.806,3.519-1.3,5.343-.512A44.381,44.381,0,0,1,255.6,95.234c2.353,2.422,7.069,1.4,7.809-2.061a43.484,43.484,0,0,1,5.443-13.859c1.6-2.6,3.859-6.643,7.456-5.217,8.915,3.535,4.026,15.825,1.661,22.019-.9,2.357,1,5.124,3.264,5.746,2.63.723,4.842-.9,5.746-3.263C289.55,91.869,291.925,84.607,290.144,77.359Z" fill="#a73807"/>
    <path d="M393.358,97.943c-1.742-5.043-5.971-9.477-11.755-7.711A35.056,35.056,0,0,0,370.994,95.8a41.6,41.6,0,0,0-9.658,10.164,4.7,4.7,0,0,0,1.676,6.392,4.783,4.783,0,0,0,6.392-1.676c.29-.432.6-.853.891-1.281.091-.121.147-.2.184-.248.094-.116.186-.234.28-.349q.867-1.055,1.816-2.04,1.083-1.124,2.262-2.149c.308-.268.625-.524.941-.782.132-.1.456-.354.558-.428a34.96,34.96,0,0,1,5.006-3.021c.352-.174.71-.335,1.067-.5.031,0,.9-.372,1.04-.423.094-.035.191-.062.286-.095a.388.388,0,0,0,.073.086c.168.282.338.563.5.855q.117.325.215.658c.117.4.185.81.281,1.215.015.177.031.354.04.531a15.114,15.114,0,0,1,0,1.535q-.019.337-.053.674c-.093.44-.173.879-.285,1.314s-.25.893-.4,1.332c-.041.121-.39.954-.442,1.108-.427.9-.884,1.791-1.393,2.653-1.144,1.937-2.459,3.765-3.773,5.588-1.433,1.99-.41,5.29,1.676,6.392a4.8,4.8,0,0,0,6.392-1.676C391.418,114.885,396.331,106.547,393.358,97.943Z" fill="#a73807"/>
  </g>
</svg>
