<?xml version="1.0" encoding="UTF-8" standalone="no"?>
<!DOCTYPE svg PUBLIC "-//W3C//DTD SVG 1.1//EN" "http://www.w3.org/Graphics/SVG/1.1/DTD/svg11.dtd">
<svg width="100%" height="100%" viewBox="0 0 1137 662" version="1.1" xmlns="http://www.w3.org/2000/svg" xmlns:xlink="http://www.w3.org/1999/xlink" xml:space="preserve" xmlns:serif="http://www.serif.com/" style="fill-rule:evenodd;clip-rule:evenodd;stroke-linejoin:round;stroke-miterlimit:2;">
    <g transform="matrix(1,0,0,1,-875.188559,-550.555591)">
        <g transform="matrix(0.617831,0,0,0.617831,648.757399,412.640795)">
            <g transform="matrix(4.166667,0,0,4.166667,2183.275667,1231.221428)">
                <path d="M0,-70.675C-0.766,-72.395 -3.135,-71.638 -3.655,-70.196C-8.496,-56.794 -14.975,-42.919 -26.734,-34.207C-39.173,-24.99 -54.96,-22.175 -70.131,-22.277C-80.031,-22.343 -89.877,-23.534 -99.692,-24.725C-99.867,-24.745 -100.035,-24.723 -100.199,-24.683C-100.566,-24.791 -100.956,-24.811 -101.305,-24.715C-102.429,-24.406 -102.889,-23.322 -102.701,-22.255C-101.974,-18.102 -101.036,-13.987 -99.876,-9.933C-99.311,-7.955 -98.768,-5.916 -97.993,-4.008C-98.301,-2.881 -97.691,-1.388 -96.158,-1.26C-76.726,0.365 -56.35,1.72 -37.684,-5.105C-29.957,-7.93 -22.663,-12.009 -16.563,-17.567C-9.988,-23.557 -5.513,-31.092 -2.652,-39.471C-0.937,-44.498 0.467,-49.751 1.33,-54.994C2.209,-60.327 2.233,-65.66 0,-70.675" style="fill-rule:nonzero;"/>
            </g>
            <g>
                <g>
                    <g transform="matrix(1,0,0,1,-312,-59)">
                        <g transform="matrix(4.166667,0,0,4.166667,1198.042227,1205.150341)">
                            <path d="M0,-53.039C-0.721,-57.743 -1.644,-62.416 -2.779,-67.037C-3.792,-71.166 -4.796,-75.486 -6.872,-79.235C-8.961,-83.01 -12.245,-85.496 -16.363,-86.714C-20.799,-88.026 -25.595,-88.427 -30.164,-89.06C-32.571,-89.394 -34.98,-89.712 -37.392,-90.012C-38.776,-90.185 -39.549,-88.602 -39.32,-87.48C-38.304,-82.504 -37.288,-77.526 -36.271,-72.55C-36.077,-71.599 -35.406,-71.159 -34.674,-71.115C-30.74,-54.848 -27.185,-38.43 -26.078,-21.709C-25.437,-12.014 -25.601,-2.205 -27.109,7.407C-27.766,11.591 -28.87,15.707 -29.294,19.926C-29.647,23.427 -29.441,27.364 -27.39,30.362C-22.751,37.146 -12.927,35.569 -8.064,29.891C-5.303,26.666 -3.782,22.661 -2.785,18.581C-1.678,14.051 -0.93,9.409 -0.245,4.799C2.604,-14.363 2.941,-33.866 0,-53.039" style="fill:rgb(129,129,129);fill-rule:nonzero;"/>
                        </g>
                        <g transform="matrix(4.166667,0,0,4.166667,1471.221394,1120.539091)">
                            <path d="M0,-99.787C-2.266,-109.591 -6.624,-119.299 -14.732,-125.623C-18.385,-128.474 -22.673,-130.616 -27.282,-131.336C-32.772,-132.193 -38.292,-131.266 -43.525,-129.536C-53.844,-126.124 -63.468,-120.612 -72.019,-113.954C-76.082,-110.79 -80.057,-107.343 -84.82,-105.26C-89.39,-103.261 -94.494,-102.686 -99.431,-103.159C-101.952,-103.4 -104.43,-103.99 -106.832,-104.783C-108.844,-105.448 -109.907,-102.965 -108.875,-101.608C-109.672,-101.624 -110.446,-101.202 -110.683,-100.185C-113.45,-88.323 -116.125,-76.306 -116.571,-64.09C-116.787,-58.191 -116.435,-52.262 -115.289,-46.465C-114.721,-43.588 -113.941,-40.752 -112.934,-37.998C-112.053,-35.589 -111.109,-32.832 -109.071,-31.136C-107.631,-29.938 -105.864,-29.502 -104.136,-29.708C-104.761,-25.977 -105.005,-22.142 -104.517,-18.383C-104.047,-14.771 -102.911,-11.186 -100.438,-8.429C-99.299,-7.158 -97.701,-5.895 -96.038,-5.417C-93.761,-4.762 -92.209,-6.132 -91.075,-7.934C-90.913,-8.192 -90.764,-8.459 -90.608,-8.722C-90.198,-5.451 -89.365,-2.233 -88.089,0.825C-86.855,3.782 -84.165,8.043 -80.392,6.724C-80.206,11.296 -79.046,15.827 -76.879,19.841C-75.09,23.155 -71.024,26.109 -67.615,22.936C-67.366,22.704 -67.141,22.446 -66.924,22.179C-65.885,26.33 -63.271,29.861 -58.616,31.123C-53.876,32.406 -48.834,30.811 -44.588,28.699C-40.283,26.559 -36.297,23.787 -32.652,20.661C-16.605,6.9 -8.36,-13.656 -3.003,-33.591C2.743,-54.971 5.03,-78.022 0,-99.787" style="fill:rgb(219,214,202);fill-rule:nonzero;"/>
                        </g>
                        <g transform="matrix(-1.893013,3.71182,-3.71182,-1.893013,1386.667956,549.307172)">
                            <path d="M0,57.855C-0.119,57.45 -0.24,57.044 -0.36,56.639C-0.294,55.726 -0.505,54.784 -1.104,53.889C-1.138,53.838 -1.178,53.8 -1.215,53.754C-4.479,42.786 -7.908,31.859 -12.418,21.328C-14.895,15.544 -17.711,9.9 -21.01,4.54C-22.66,1.859 -24.429,-0.749 -26.327,-3.26C-27.215,-4.436 -28.076,-5.687 -29.396,-6.42C-30.847,-7.227 -32.605,-7.131 -34.109,-6.537C-39.778,-4.294 -40.988,2.516 -42.266,7.749C-43.961,14.699 -45.888,21.639 -47.207,28.672C-48.409,35.086 -48.955,41.887 -46.952,48.203C-45.325,53.333 -42.187,58.138 -37.563,61.025C-31.065,65.082 -23.056,63.613 -15.859,63.007C-13.897,62.841 -11.935,62.676 -9.973,62.511C-8.121,62.355 -6.131,62.322 -4.378,61.641C-3.604,61.34 -2.877,60.874 -2.256,60.297C-0.977,60.457 0.474,59.459 0,57.855" style="fill-rule:nonzero;"/>
                        </g>
                        <g transform="matrix(4.166667,0,0,4.166667,2114.814727,178.935341)">
                            <path d="M0,258.07C-2.85,264.49 -7.14,270.43 -12.99,274.421C-19.85,279.11 -27.95,279.24 -35.96,279.43C-54.25,279.85 -72.55,279.97 -90.85,279.78C-109.14,279.58 -127.43,279.08 -145.71,278.26C-150.37,278.05 -155.03,277.83 -159.69,277.57C-162.75,277.41 -165.82,277.11 -168.81,276.44C-172.28,275.66 -175.72,274.25 -178.32,271.95C-179.07,271.3 -179.75,270.56 -180.34,269.74C-181.19,271.02 -182.15,272.211 -183.22,273.31C-186.34,276.54 -190.33,278.93 -194.66,280.12C-198.1,281.07 -202.56,281.68 -205.76,279.7C-208.84,277.81 -209.65,274.08 -209.35,270.7C-209.04,267.18 -207.99,263.69 -207,260.31C-205.91,256.62 -204.65,252.98 -203.27,249.39C-200.5,242.171 -197.25,235.15 -193.85,228.211C-187.01,214.26 -179.49,200.591 -174.22,185.94C-169.05,171.57 -165.69,155.93 -168.05,140.64C-169.8,129.3 -175.15,115.89 -186.75,111.72C-188.88,117.81 -192.58,123.25 -197.32,127.64C-207.19,136.76 -224.35,142.421 -238.29,141.58C-256.67,140.461 -270.37,138.8 -286.22,135.66C-294.68,133.99 -303.61,132.08 -311.99,129.04C-316.5,127.4 -320.86,125.43 -324.89,122.99C-325.38,122.7 -325.86,122.4 -326.34,122.091C-333.38,117.55 -339.21,108.73 -336.04,100.1C-334.35,95.5 -330.34,92.48 -326.32,89.97C-322.35,87.48 -318.04,85.57 -313.66,83.921C-304.97,80.65 -295.86,78.58 -287.29,75C-279.9,71.921 -272.49,67.62 -267.56,61.16C-264.9,57.68 -263.5,53.82 -262.17,49.7C-260.76,45.35 -258.88,41.4 -255.16,38.58C-248.22,33.33 -238.45,33.421 -230.17,33.49C-222.85,33.55 -215.53,34.1 -208.27,35.1C-205.21,25.62 -169.664,39.001 -166.66,40.77C-161.09,44.05 -147.26,58.68 -143.69,64.49C-137.59,74.41 -131.85,84.56 -125.2,94.131C-120.75,100.54 -115.97,106.72 -110.92,112.66C-106.1,116.72 -101.04,120.51 -95.87,124.08C-70.46,141.66 -41.63,155.07 -20.15,177.8C-9.95,188.58 -1.96,201.33 2.07,215.68C5.98,229.61 5.94,244.72 0,258.07" style="fill:rgb(148,163,178);fill-rule:nonzero;"/>
                        </g>
                        <g transform="matrix(4.166667,0,0,4.166667,1910.273477,1300.606174)">
                            <path d="M0,-87.131C-11.7,-86.621 -23.51,-85.99 -34.9,-83.061C-44.72,-80.53 -54.01,-76.131 -61.25,-68.901C-68.53,-61.631 -73.42,-52.421 -78.39,-43.521C-80.93,-38.961 -83.5,-34.401 -86.44,-30.081C-89.55,-25.501 -92.99,-21.151 -98.24,-18.981C-103.32,-16.891 -108.9,-17.07 -114.14,-15.601C-118.16,-14.481 -122.51,-12.171 -123.48,-7.771C-123.71,-6.721 -124.52,-6.301 -125.34,-6.341C-126.64,-3.311 -127.94,-0.271 -129.23,2.749C-129.98,2.099 -130.66,1.359 -131.25,0.539C-132.1,1.819 -133.06,3.01 -134.13,4.109C-133.69,3.069 -133.24,2.019 -132.79,0.979C-122.39,-23.331 -111.98,-47.641 -101.57,-71.951C-101.15,-72.941 -99.68,-73.161 -98.84,-72.661C-97.82,-72.07 -97.69,-70.921 -98.12,-69.931C-101,-63.201 -103.88,-56.471 -106.76,-49.751C-111.41,-38.881 -116.06,-28.021 -120.71,-17.161C-119.18,-18.051 -117.53,-18.751 -115.88,-19.261C-110.02,-21.081 -103.36,-20.441 -97.91,-23.561C-93.28,-26.221 -90.27,-31.331 -87.53,-35.751C-84.73,-40.251 -82.2,-44.911 -79.61,-49.53C-74.44,-58.751 -68.84,-68.081 -60.6,-74.901C-43.8,-88.82 -20.85,-90.221 0,-91.131C2.58,-91.24 2.57,-87.24 0,-87.131" style="fill:rgb(47,12,84);fill-rule:nonzero;"/>
                        </g>
                        <g transform="matrix(4.166667,0,0,4.166667,1141.257227,501.621591)">
                            <path d="M0,-16.613C-1.15,-19.315 -4.159,-20.692 -6.815,-19.104C-9.229,-17.66 -10.512,-14.688 -11.632,-12.239C-13.096,-9.041 -14.235,-5.717 -14.997,-2.283C-15.553,0.226 -11.697,1.297 -11.14,-1.219C-10.468,-4.25 -9.532,-7.236 -8.25,-10.066C-7.618,-11.459 -6.943,-12.871 -6.128,-14.168C-5.743,-14.781 -4.891,-15.934 -4.276,-15.789C-4.034,-15.731 -3.882,-15.511 -3.72,-15.172C-3.547,-14.811 -3.415,-14.291 -3.375,-13.957C-3.193,-12.393 -3.53,-10.823 -3.946,-9.325C-4.874,-5.988 -6.076,-2.712 -7.158,0.577C-7.964,3.029 -4.103,4.079 -3.301,1.641C-2.291,-1.43 -1.214,-4.488 -0.286,-7.585C0.573,-10.448 1.214,-13.759 0,-16.613" style="fill:rgb(47,12,84);fill-rule:nonzero;"/>
                        </g>
                        <g transform="matrix(4.166667,0,0,4.166667,789.171811,600.760758)">
                            <path d="M0,-5.551C-2.456,-14.001 -13.025,-15.74 -20.095,-12.21C-32.045,-6.244 -25.852,8.411 -14.351,9.459C-6.338,10.189 2.505,3.069 0,-5.551" style="fill:rgb(47,12,84);fill-rule:nonzero;"/>
                        </g>
                        <g transform="matrix(4.166667,0,0,4.166667,1124.980977,681.101174)">
                            <path d="M0,6.64C-3.97,8.42 -8.63,8.941 -12.91,9.59C-29.25,12.05 -45.83,11.77 -62.23,10.04C-66.31,9.611 -70.37,9.1 -74.43,8.52C-78.94,6.88 -83.3,4.911 -87.33,2.47C-86.39,2.63 -85.44,2.79 -84.49,2.951C-69.12,5.51 -53.59,7.401 -37.99,7.411C-30.36,7.411 -22.71,6.98 -15.16,5.911C-11.47,5.38 -7.72,4.81 -4.12,3.861C-1.63,3.201 2.41,1.47 1.77,-1.82C1.29,-4.339 5.15,-5.41 5.63,-2.889C6.44,1.321 3.74,4.97 0,6.64" style="fill:rgb(47,12,84);fill-rule:nonzero;"/>
                        </g>
                    </g>
                    <g transform="matrix(1,0,0,1,195,-748)">
                        <g transform="matrix(4.166667,0,0,4.166667,1557.413171,1877.755)">
                            <path d="M0,-15.434C-0.4,-18.878 -0.738,-23.451 -3.714,-25.768C-10.109,-30.746 -12.072,-20.027 -12.447,-16.2C-12.604,-14.593 -12.762,-12.987 -12.919,-11.381C-13.124,-11.725 -13.301,-12.077 -13.458,-12.349C-14.325,-13.848 -15.259,-15.285 -16.312,-16.659C-17.379,-18.05 -18.521,-19.378 -19.772,-20.607C-20.975,-21.788 -22.325,-23.129 -24.137,-23.094C-30.145,-22.981 -27.449,-13.9 -26.375,-10.627C-23.887,-3.042 -20.122,4.13 -15.079,10.329C-11.998,14.115 -7.141,15.312 -4.025,10.953C-1.619,7.587 -1.08,3.086 -0.404,-0.886C0.413,-5.684 0.562,-10.599 0,-15.434" style="fill:rgb(47,12,84);fill-rule:nonzero;"/>
                        </g>
                        <g transform="matrix(4.166667,0,0,4.166667,-5561.137246,-2707)">
                            <g transform="matrix(1.286325,0,0,1.286325,-1856.992971,147.76295)">
                                <g transform="matrix(1,0,0,1,2732.6768,717.2487)">
                                    <path d="M0,2.905C-0.127,2.634 -0.266,2.367 -0.407,2.102C-1.114,-0.002 -2.094,-2.116 -3.49,-3.809C-4.428,-4.946 -5.909,-5.647 -7.381,-5.209C-8.646,-4.832 -9.517,-3.672 -9.734,-2.4C-10.126,-0.111 -9.103,2.305 -7.761,4.126C-7.061,5.076 -6.294,5.931 -5.361,6.657C-4.103,7.637 -2.482,8.552 -0.896,7.66C0.021,7.145 0.576,6.175 0.587,5.124C0.596,4.326 0.332,3.615 0,2.905" style="fill:rgb(47,12,84);fill-rule:nonzero;"/>
                                </g>
                                <g transform="matrix(1,0,0,1,2724.213,726.9978)">
                                    <path d="M0,2.318C-0.124,1.575 -0.549,0.92 -1.045,0.37C-1.196,0.203 -1.363,0.051 -1.528,-0.102C-1.545,-0.139 -1.56,-0.176 -1.575,-0.213C-1.771,-0.661 -2.027,-1.048 -2.325,-1.433C-2.721,-1.946 -3.146,-2.337 -3.665,-2.727C-4.129,-3.075 -4.628,-3.295 -5.167,-3.51C-5.826,-3.775 -6.63,-3.444 -7.112,-2.996C-7.619,-2.526 -7.995,-1.867 -8.171,-1.201C-8.361,-0.481 -8.335,0.201 -8.213,0.924C-8.009,2.129 -7.205,3.192 -6.376,4.047C-5.426,5.027 -4.341,5.969 -2.909,6.042C-1.895,6.093 -0.923,5.541 -0.377,4.701C0.095,3.978 0.137,3.142 0,2.318" style="fill:rgb(47,12,84);fill-rule:nonzero;"/>
                                </g>
                                <g transform="matrix(1,0,0,1,2737.2003,738.3797)">
                                    <path d="M0,-2.811C-0.695,-4.657 -1.731,-6.334 -3.154,-7.712C-3.96,-8.492 -5.628,-8.513 -6.225,-7.418C-7.054,-7.167 -7.726,-6.445 -7.693,-5.518C-7.632,-3.747 -7.338,-1.961 -6.762,-0.283C-6.46,0.594 -6.095,1.459 -5.672,2.285C-5.271,3.069 -4.813,3.954 -4.155,4.551C-3.123,5.488 -1.63,5.702 -0.492,4.823C0.388,4.143 0.699,3.09 0.764,2.022C0.861,0.41 0.567,-1.303 0,-2.811" style="fill:rgb(47,12,84);fill-rule:nonzero;"/>
                                </g>
                            </g>
                            <g transform="matrix(1.286325,0,0,1.286325,-1899.232971,76.96295)">
                                <g>
                                    <g transform="matrix(1,0,0,1,2732.6768,717.2487)">
                                        <path d="M0,2.905C-0.127,2.634 -0.266,2.367 -0.407,2.102C-1.114,-0.002 -2.094,-2.116 -3.49,-3.809C-4.428,-4.946 -5.909,-5.647 -7.381,-5.209C-8.646,-4.832 -9.517,-3.672 -9.734,-2.4C-10.126,-0.111 -9.103,2.305 -7.761,4.126C-7.061,5.076 -6.294,5.931 -5.361,6.657C-4.103,7.637 -2.482,8.552 -0.896,7.66C0.021,7.145 0.576,6.175 0.587,5.124C0.596,4.326 0.332,3.615 0,2.905" style="fill:rgb(47,12,84);fill-rule:nonzero;"/>
                                    </g>
                                    <g transform="matrix(1,0,0,1,2724.213,726.9978)">
                                        <path d="M0,2.318C-0.124,1.575 -0.549,0.92 -1.045,0.37C-1.196,0.203 -1.363,0.051 -1.528,-0.102C-1.545,-0.139 -1.56,-0.176 -1.575,-0.213C-1.771,-0.661 -2.027,-1.048 -2.325,-1.433C-2.721,-1.946 -3.146,-2.337 -3.665,-2.727C-4.129,-3.075 -4.628,-3.295 -5.167,-3.51C-5.826,-3.775 -6.63,-3.444 -7.112,-2.996C-7.619,-2.526 -7.995,-1.867 -8.171,-1.201C-8.361,-0.481 -8.335,0.201 -8.213,0.924C-8.009,2.129 -7.205,3.192 -6.376,4.047C-5.426,5.027 -4.341,5.969 -2.909,6.042C-1.895,6.093 -0.923,5.541 -0.377,4.701C0.095,3.978 0.137,3.142 0,2.318" style="fill:rgb(47,12,84);fill-rule:nonzero;"/>
                                    </g>
                                    <g transform="matrix(1,0,0,1,2737.2003,738.3797)">
                                        <path d="M0,-2.811C-0.695,-4.657 -1.731,-6.334 -3.154,-7.712C-3.96,-8.492 -5.628,-8.513 -6.225,-7.418C-7.054,-7.167 -7.726,-6.445 -7.693,-5.518C-7.632,-3.747 -7.338,-1.961 -6.762,-0.283C-6.46,0.594 -6.095,1.459 -5.672,2.285C-5.271,3.069 -4.813,3.954 -4.155,4.551C-3.123,5.488 -1.63,5.702 -0.492,4.823C0.388,4.143 0.699,3.09 0.764,2.022C0.861,0.41 0.567,-1.303 0,-2.811" style="fill:rgb(47,12,84);fill-rule:nonzero;"/>
                                    </g>
                                </g>
                            </g>
                            <g transform="matrix(1,0,0,1,-1592.4,386.4)">
                                <g transform="matrix(1,0,0,1,3130.2725,624.5567)">
                                    <path d="M0,-2.084C0.239,-3.748 -0.688,-5.123 -2.193,-5.774C-3.447,-6.317 -4.842,-6.318 -6.149,-5.972C-9.243,-5.151 -11.929,-3.158 -13.664,-0.479C-13.735,-0.368 -13.793,-0.25 -13.837,-0.127C-13.969,0.062 -14.09,0.26 -14.184,0.478C-14.602,1.441 -14.54,2.612 -13.754,3.39C-13.021,4.115 -12.028,4.234 -11.049,4.175C-9.55,4.083 -8.168,3.709 -6.776,3.163C-5.634,2.715 -4.546,2.149 -3.478,1.548C-1.994,0.714 -0.268,-0.223 0,-2.084" style="fill:rgb(47,12,84);fill-rule:nonzero;"/>
                                </g>
                                <g transform="matrix(1,0,0,1,3125.0635,637.2237)">
                                    <path d="M0,-3.629C-0.219,-4.463 -0.814,-5.1 -1.633,-5.38C-2.196,-5.573 -2.709,-5.525 -3.282,-5.448C-3.87,-5.371 -4.452,-5.247 -5.021,-5.085C-5.207,-5.033 -5.389,-4.968 -5.571,-4.908C-5.877,-4.894 -6.172,-4.819 -6.488,-4.691C-6.987,-4.488 -7.443,-4.23 -7.885,-3.941C-8.274,-3.737 -8.656,-3.521 -9.021,-3.28C-9.45,-2.998 -9.786,-2.647 -9.952,-2.157C-10.113,-1.97 -10.272,-1.778 -10.429,-1.582C-10.712,-1.226 -10.781,-0.49 -10.657,-0.068C-10.515,0.415 -10.219,0.933 -9.748,1.163C-9.154,1.452 -8.553,1.697 -7.899,1.802C-7.079,1.933 -6.36,1.944 -5.537,1.842C-4.241,1.68 -3.073,1.115 -2.038,0.342C-1.507,-0.055 -1.087,-0.543 -0.691,-1.073C-0.16,-1.786 0.235,-2.729 0,-3.629" style="fill:rgb(47,12,84);fill-rule:nonzero;"/>
                                </g>
                            </g>
                        </g>
                    </g>
                    <g transform="matrix(4.166667,0,0,4.166667,1158.391921,464.225833)">
                        <path d="M0,-14.331C4.715,-19.737 0.451,-28.423 -3.186,-33.16C-12.176,-44.871 -27.586,-50.534 -41.882,-51.7C-69.632,-53.965 -54.596,-10.463 -48.983,1.964C-45.616,9.418 -42.016,16.876 -37.159,23.494C-33.932,27.891 -25.944,39.634 -19.479,37.578C-15.983,36.467 -15.041,32.421 -14.941,29.195C-14.753,23.138 -15.589,16.93 -17.14,10.937C-16.962,11.067 -16.801,11.212 -16.613,11.334C-13.125,13.613 -8.405,13.751 -5.441,10.537C-3.083,7.981 -2.606,4.074 -3.03,0.756C-3.539,-3.227 -5.307,-7.074 -7.46,-10.428C-7.801,-10.958 -8.158,-11.477 -8.527,-11.983C-5.494,-11.378 -2.114,-11.907 0,-14.331" style="fill-rule:nonzero;"/>
                    </g>
                    <g transform="matrix(1.310062,4.909796,-4.579795,1.222009,776.599742,1282.862914)">
                        <path d="M0,-17.472C-5.412,-21.413 -4.921,-14.245 -7.281,-8.96C-13.516,5.001 4.672,3.941 3.846,-9.437C3.609,-13.267 2.096,-15.946 0,-17.472" style="fill:white;fill-rule:nonzero;"/>
                    </g>
                    <g transform="matrix(1.310062,4.909796,-4.579795,1.222009,940.599742,1283.862914)">
                        <path d="M0,-17.472C-5.412,-21.413 -4.921,-14.245 -7.281,-8.96C-13.516,5.001 4.672,3.941 3.846,-9.437C3.609,-13.267 2.096,-15.946 0,-17.472" style="fill:white;fill-rule:nonzero;"/>
                    </g>
                    <g transform="matrix(4.166667,0,0,4.166667,-12024.137246,-1735)">
                        <g transform="matrix(1,0,0,1,3130.2725,624.5567)">
                            <path d="M0,-2.084C0.239,-3.748 -0.688,-5.123 -2.193,-5.774C-3.447,-6.317 -4.842,-6.318 -6.149,-5.972C-9.243,-5.151 -11.929,-3.158 -13.664,-0.479C-13.735,-0.368 -13.793,-0.25 -13.837,-0.127C-13.969,0.062 -14.09,0.26 -14.184,0.478C-14.602,1.441 -14.54,2.612 -13.754,3.39C-13.021,4.115 -12.028,4.234 -11.049,4.175C-9.55,4.083 -8.168,3.709 -6.776,3.163C-5.634,2.715 -4.546,2.149 -3.478,1.548C-1.994,0.714 -0.268,-0.223 0,-2.084" style="fill:white;fill-rule:nonzero;"/>
                        </g>
                        <g transform="matrix(1,0,0,1,3125.0635,637.2237)">
                            <path d="M0,-3.629C-0.219,-4.463 -0.814,-5.1 -1.633,-5.38C-2.196,-5.573 -2.709,-5.525 -3.282,-5.448C-3.87,-5.371 -4.452,-5.247 -5.021,-5.085C-5.207,-5.033 -5.389,-4.968 -5.571,-4.908C-5.877,-4.894 -6.172,-4.819 -6.488,-4.691C-6.987,-4.488 -7.443,-4.23 -7.885,-3.941C-8.274,-3.737 -8.656,-3.521 -9.021,-3.28C-9.45,-2.998 -9.786,-2.647 -9.952,-2.157C-10.113,-1.97 -10.272,-1.778 -10.429,-1.582C-10.712,-1.226 -10.781,-0.49 -10.657,-0.068C-10.515,0.415 -10.219,0.933 -9.748,1.163C-9.154,1.452 -8.553,1.697 -7.899,1.802C-7.079,1.933 -6.36,1.944 -5.537,1.842C-4.241,1.68 -3.073,1.115 -2.038,0.342C-1.507,-0.055 -1.087,-0.543 -0.691,-1.073C-0.16,-1.786 0.235,-2.729 0,-3.629" style="fill:white;fill-rule:nonzero;"/>
                        </g>
                    </g>
                </g>
                <g transform="matrix(5.081479,-0.030561,0.028507,4.739938,2185.755951,1015.617917)">
                    <path d="M0,-17.472C-5.412,-21.413 -4.921,-14.245 -7.281,-8.96C-13.516,5.001 4.672,3.941 3.846,-9.437C3.609,-13.267 2.096,-15.946 0,-17.472" style="fill:white;fill-rule:nonzero;"/>
                </g>
            </g>
        </g>
    </g>
</svg>
